<?xml version="1.0" encoding="utf-8"?>
<!-- Svg Vector Icons : http://www.onlinewebfonts.com/icon -->
<!DOCTYPE svg PUBLIC "-//W3C//DTD SVG 1.1//EN" "http://www.w3.org/Graphics/SVG/1.1/DTD/svg11.dtd">
<svg version="1.1" xmlns="http://www.w3.org/2000/svg" xmlns:xlink="http://www.w3.org/1999/xlink" x="0px" y="0px" viewBox="0 0 1000 1000" enable-background="new 0 0 1000 1000" xml:space="preserve">
<metadata> Svg Vector Icons : http://www.onlinewebfonts.com/icon </metadata>
<g><path d="M438.8,990c-14.5,0-40.6-6.1-58.5-23.9c-14.2-14.2-26.3-39.6-31.8-52.4c-8.6,2.1-21.9,3.4-32.2-3.6c-11-7.5-18.6-29.7-30.1-65.1c-3-9.3-6.1-18.8-9.3-27.8c-8-22.5-25.6-52.3-39.8-76.3c-8-13.6-15-25.3-19.1-33.8c-9.6-19.8-18.3-62.8-21.4-78.8c-17.8-4.3-66.1-21.2-83.4-81.7c-18.5-64.6,25.1-121.5,36.3-134.8l-0.6-22.3c-3.6-12.7-24.6-105.5,77.2-240.9C332.2,7.6,489.7,9.8,500,10c10.3-0.3,167.8-2.4,273.9,138.6C875.6,284,854.6,376.9,851,389.6l-0.6,22.3c11.3,13.3,54.8,70.2,36.3,134.8l-2.1-0.6l2.1,0.6c-17.3,60.5-65.7,77.4-83.4,81.7c-3,16-11.8,59-21.4,78.8c-4.1,8.5-11.1,20.2-19.1,33.8c-14.2,24-31.8,53.8-39.8,76.3c-3.2,8.9-6.3,18.5-9.3,27.8c-11.5,35.5-19.2,57.6-30.1,65.1c-10.2,7-23.5,5.7-32.2,3.6c-5.5,12.8-17.6,38.1-31.8,52.4c-20.4,20.4-51.8,25.4-64,23.5c-8.9-1.4-46.5-9.6-55.6-11.7c-9.2,2-46.8,10.3-55.6,11.7C442.8,989.9,440.9,990,438.8,990z M366.4,909.6c5.5,12.3,15.6,32.7,26.7,43.7c15.8,15.8,41.1,19.6,48.5,18.5c7.5-1.2,40.2-8.3,56.4-11.9c1.3-0.3,2.6-0.3,3.9,0c16.2,3.6,48.9,10.7,56.4,11.9c7.4,1.1,32.7-2.7,48.5-18.5c16.5-16.5,30.8-53.5,31-53.9c0.7-1.8,1.9-3.3,3.5-4.3l-41.9-130.5c-2.2-2.9-22-25.6-102.8-25.6c-79.5,0-94.8,21.7-96.4,24.6l-30.7,140.9C369,906.7,367.9,908.4,366.4,909.6z M660.9,897.1c4.6,0.6,9.4,0.3,12.6-1.8c6.5-4.4,16.1-34.2,23.2-55.9c3-9.4,6.2-19.1,9.4-28.2c8.6-24.2,26.7-54.8,41.3-79.5c7.8-13.2,14.6-24.6,18.4-32.5c7.4-15.4,14.8-48.5,18.5-67c-17.4,2.9-49.4,6.2-89.3,1.1c-2.1-0.3-4.2-0.6-6.3-0.9c0.2,1.8-0.2,3.7-1.1,5.4l-70.1,124.1L660.9,897.1z M215.8,632.3c3.7,18.5,11,51.6,18.5,67c3.8,7.8,10.5,19.3,18.4,32.5c14.6,24.6,32.7,55.3,41.3,79.5c3.2,9.2,6.4,18.9,9.4,28.2c7.1,21.7,16.7,51.4,23.2,55.9c6.5,4.4,19.7,0.7,23.8-0.9c1-0.4,2-0.6,3.1-0.6l28.7-131.5L314.2,632c-2.9,0.5-5.9,0.9-9,1.3C265.2,638.5,233.2,635.2,215.8,632.3z M513.1,721.5c54.1,2.2,80.4,14.8,92.7,24.5l36.6-64.8C614.5,700,572.5,718.5,513.1,721.5z M360.7,682.4l32.6,62.5c11.7-9.7,36.1-21.2,86.5-23.3C425.5,718.7,387,701.3,360.7,682.4z M333,628.3c13.5,20.8,58.8,75.6,162.9,75.6c119.5,0,170.1-66.6,175.7-74.6c-43.8-9.5-62.4-26-63.3-26.8c-3.7-3.3-4-9-0.6-12.7c3.3-3.7,9-4,12.7-0.7c0.4,0.3,22.8,19.4,76.9,26.3c49.8,6.4,87.1-1.3,95-3.1c0.7-0.3,1.5-0.5,2.3-0.6c0.7-0.1,6.5-1,14.7-3.9c-39.4-1.5-70.9-33.9-70.9-73.7c0-40.6,33.1-73.7,73.7-73.7c23.7,0,44.8,11.2,58.2,28.6c-9-38.8-35-67.4-35.4-67.8c-1.6-1.7-2.5-4-2.4-6.4l0.8-27c0-0.9,0.2-1.7,0.4-2.5c0.3-0.9,27.2-91.3-74-225.9C657.9,24.4,501.9,28,500.3,28c-0.2,0-0.4,0-0.6,0c-1.6-0.1-157.6-3.6-259.2,131.4c-101.8,135.3-74.3,225-74,225.9c0.3,0.8,0.4,1.7,0.4,2.5l0.8,27c0.1,2.4-0.8,4.6-2.4,6.4c-0.4,0.4-26.3,29-35.3,67.7c13.5-17.3,34.6-28.5,58.2-28.5c40.6,0,73.7,33.1,73.7,73.7c0,39.7-31.6,72.2-70.9,73.7c8.2,3,14,3.8,14.7,3.9c0.8,0.1,1.5,0.3,2.2,0.6c7.7,1.8,45.1,9.5,95,3.2c54.4-7,76.7-26.1,76.9-26.3c3.7-3.3,9.4-2.9,12.7,0.8c3.3,3.7,3,9.3-0.7,12.6C390.9,603.4,373.5,618.7,333,628.3z M811.9,478.4c-30.7,0-55.7,25-55.7,55.7c0,30.7,25,55.7,55.7,55.7c30.7,0,55.7-25,55.7-55.7C867.6,503.4,842.6,478.4,811.9,478.4z M188.1,478.4c-30.7,0-55.7,25-55.7,55.7c0,30.7,25,55.7,55.7,55.7c30.7,0,55.7-25,55.7-55.7C243.8,503.4,218.8,478.4,188.1,478.4z M633.2,449c-20.1,0-38.6-4.5-49.9-14.9c-15.2-13.9-19.7-40.7-20.7-60.6c-0.1-2,0-4.1,0.2-6.1c-14.4,8.8-25.9,15.6-39.9,11.2c-8.7-2.7-15.9-7.9-21-15.1c-5.2,7.2-12.3,12.4-21,15.1c-14.2,4.4-25.9-2.7-40.7-11.7c-1.1-0.7-2.3-1.4-3.5-2.1c0.6,2.8,0.9,5.7,0.7,8.7c-1,20-5.5,46.7-20.7,60.6c-23.2,21.2-76.5,17.9-111.7,1.5c-37.6-17.5-58.3-38.4-61.4-62.1c-1.9-14.2-0.7-26.5,3.1-36.1c-32.9,6.1-55.1,14.5-55.5,14.7c-4.6,1.8-9.8-0.5-11.6-5.2c-1.8-4.6,0.5-9.8,5.2-11.6c2.5-1,48.7-18.5,108-21.7c10.4-0.8,23-1.2,37.4,0.1c7.7,0.5,15.5,1.2,23.3,2.4c49.8,7.2,77.7,24.3,96.2,35.6c13.2,8,19.8,11.8,25.9,9.9c6.4-2,11.1-6.2,14.1-12.4c2-4.3,3.1-9.5,3.3-14.8c0-0.7,0-1.5,0-2.2c-0.1-4.9-1.1-9.8-2.8-14.2c-1.8-4.6,0.4-9.9,5-11.7c2.3-0.9,4.7-0.8,6.8,0.1c2.1-0.9,4.5-1,6.8-0.1c4.6,1.8,6.9,7.1,5,11.7c-1.8,4.4-2.7,9.3-2.8,14.2c0,0.7,0,1.5,0,2.2c0.1,5.3,1.2,10.5,3.3,14.8c3,6.3,7.7,10.5,14.1,12.4c6.1,1.9,12.7-1.9,25.9-9.9c18.5-11.3,46.4-28.4,96.2-35.6c1.9-0.3,3.9-0.5,5.8-0.8c17.7-2.6,33.1-2.8,45.8-2.1c63.6,1.7,114.5,21,117.2,22c4.6,1.8,6.9,7,5.2,11.6c-1.8,4.6-7,6.9-11.6,5.2c-0.4-0.2-24.6-9.3-59.7-15.4c4,9.7,5.3,22.3,3.4,36.9c-3.1,23.7-23.8,44.6-61.4,62.1C677,444.1,654.2,449,633.2,449z M586,360.5c-3.7,2.8-5.7,7.3-5.4,12.1c1.2,23.1,6.6,40.7,14.9,48.3c15.4,14.1,60.1,13.3,92-1.5c31.2-14.5,48.9-31.2,51.1-48.2c1.7-12.8,0.9-35.1-12.7-37.2c-5.6-0.9-13.5-2-23.2-2.7c-14.1-0.5-28.8,0-43.6,1.8c-3.5,0.5-7,1.1-10.7,1.8c1.5-0.2,2.9-0.3,4.4-0.3c21.6,0,39.1,17.5,39.1,39.1c0,21.6-17.5,39.1-39.1,39.1c-21.6,0-39.1-17.5-39.1-39.1c0-17.3,11.3-32.1,27-37.2c-2.2,0.5-4.5,1.1-6.8,1.7C609.7,344.8,594.5,354,586,360.5L586,360.5z M291.5,331.8c-7.1,0.7-12.9,1.5-17.4,2.2c-13.6,2.1-14.4,24.3-12.7,37.2c2.2,17,19.9,33.6,51.1,48.2c31.9,14.8,76.6,15.6,92,1.5c8.3-7.5,13.7-25.1,14.9-48.3c0.2-4.8-1.8-9.3-5.4-12.1c-8.5-6.5-23.7-15.6-47.9-22.2c-13.6-3.7-26.1-5.7-37.4-6.7C316,330.9,303.5,331,291.5,331.8z M652.8,352.7c-11.6,0-21.1,9.5-21.1,21.1c0,11.6,9.5,21.1,21.1,21.1c11.6,0,21.1-9.5,21.1-21.1C673.9,362.1,664.4,352.7,652.8,352.7z M338.3,412.9c-21.6,0-39.1-17.5-39.1-39.1c0-21.6,17.5-39.1,39.1-39.1c21.6,0,39.1,17.5,39.1,39.1C377.4,395.3,359.9,412.9,338.3,412.9z M338.3,352.7c-11.6,0-21.1,9.5-21.1,21.1c0,11.6,9.5,21.1,21.1,21.1c11.6,0,21.1-9.5,21.1-21.1C359.4,362.1,350,352.7,338.3,352.7z"/><g></g><g></g><g></g><g></g><g></g><g></g><g></g><g></g><g></g><g></g><g></g><g></g><g></g><g></g><g></g></g>
</svg>